<svg xmlns="http://www.w3.org/2000/svg" viewBox="0 0 500 100">
  <g transform="translate(0, 0)">
    <path d="M80 50 C80 30, 70 20, 50 20 C30 20, 20 30, 20 50 C20 70, 30 80, 50 80 C70 80, 80 70, 80 50" fill="#1e8e3e" />
    <path d="M75 45 C75 35, 65 25, 55 25 C45 25, 35 35, 35 45 C35 55, 45 65, 55 65 C65 65, 75 55, 75 45" fill="#fff" />
    <path d="M70 40 C70 30, 60 20, 50 20 C40 20, 30 30, 30 40 C30 50, 40 60, 50 60 C60 60, 70 50, 70 40" fill="#1e8e3e" />
    <path d="M65 35 C65 25, 55 15, 45 15 C35 15, 25 25, 25 35 C25 45, 35 55, 45 55 C55 55, 65 45, 65 35" fill="#fff" />
    <path d="M60 30 C60 20, 50 10, 40 10 C30 10, 20 20, 20 30 C20 40, 30 50, 40 50 C50 50, 60 40, 60 30" fill="#1e8e3e" />
    <path d="M55 25 C55 15, 45 5, 35 5 C25 5, 15 15, 15 25 C15 35, 25 45, 35 45 C45 45, 55 35, 55 25" fill="#fff" />
    <path d="M50 20 C50 10, 40 0, 30 0 C20 0, 10 10, 10 20 C10 30, 20 40, 30 40 C40 40, 50 30, 50 20" fill="#1e8e3e" />
    <path d="M45 15 C45 5, 35 -5, 25 -5 C15 -5, 5 5, 5 15 C5 25, 15 35, 25 35 C35 35, 45 25, 45 15" fill="#fff" />
    <path d="M40 10 C40 0, 30 -10, 20 -10 C10 -10, 0 0, 0 10 C0 20, 10 30, 20 30 C30 30, 40 20, 40 10" fill="#1e8e3e" />
    <path d="M35 5 C35 -5, 25 -15, 15 -15 C5 -15, -5 -5, -5 5 C-5 15, 5 25, 15 25 C25 25, 35 15, 35 5" fill="#fff" />
    <path d="M30 0 C30 -10, 20 -20, 10 -20 C0 -20, -10 -10, -10 0 C-10 10, 0 20, 10 20 C20 20, 30 10, 30 0" fill="#1e8e3e" />
    <path d="M25 -5 C25 -15, 15 -25, 5 -25 C-5 -25, -15 -15, -15 -5 C-15 5, -5 15, 5 15 C15 15, 25 5, 25 -5" fill="#fff" />
    <path d="M20 -10 C20 -20, 10 -30, 0 -30 C-10 -30, -20 -20, -20 -10 C-20 0, -10 10, 0 10 C10 10, 20 0, 20 -10" fill="#1e8e3e" />
    <path d="M15 -15 C15 -25, 5 -35, -5 -35 C-15 -35, -25 -25, -25 -15 C-25 -5, -15 5, -5 5 C5 5, 15 -5, 15 -15" fill="#fff" />
    <path d="M10 -20 C10 -30, 0 -40, -10 -40 C-20 -40, -30 -30, -30 -20 C-30 -10, -20 0, -10 0 C0 0, 10 -10, 10 -20" fill="#1e8e3e" />
    <path d="M5 -25 C5 -35, -5 -45, -15 -45 C-25 -45, -35 -35, -35 -25 C-35 -15, -25 -5, -15 -5 C-5 -5, 5 -15, 5 -25" fill="#fff" />
    <path d="M0 -30 C0 -40, -10 -50, -20 -50 C-30 -50, -40 -40, -40 -30 C-40 -20, -30 -10, -20 -10 C-10 -10, 0 -20, 0 -30" fill="#1e8e3e" />
    <path d="M-5 -35 C-5 -45, -15 -55, -25 -55 C-35 -55, -45 -45, -45 -35 C-45 -25, -35 -15, -25 -15 C-15 -15, -5 -25, -5 -35" fill="#fff" />
    <path d="M-10 -40 C-10 -50, -20 -60, -30 -60 C-40 -60, -50 -50, -50 -40 C-50 -30, -40 -20, -30 -20 C-20 -20, -10 -30, -10 -40" fill="#1e8e3e" />
    <path d="M-15 -45 C-15 -55, -25 -65, -35 -65 C-45 -65, -55 -55, -55 -45 C-55 -35, -45 -25, -35 -25 C-25 -25, -15 -35, -15 -45" fill="#fff" />
    <path d="M-20 -50 C-20 -60, -30 -70, -40 -70 C-50 -70, -60 -60, -60 -50 C-60 -40, -50 -30, -40 -30 C-30 -30, -20 -40, -20 -50" fill="#1e8e3e" />
    <path d="M-25 -55 C-25 -65, -35 -75, -45 -75 C-55 -75, -65 -65, -65 -55 C-65 -45, -55 -35, -45 -35 C-35 -35, -25 -45, -25 -55" fill="#fff" />
    <path d="M-30 -60 C-30 -70, -40 -80, -50 -80 C-60 -80, -70 -70, -70 -60 C-70 -50, -60 -40, -50 -40 C-40 -40, -30 -50, -30 -60" fill="#1e8e3e" />
    <path d="M-35 -65 C-35 -75, -45 -85, -55 -85 C-65 -85, -75 -75, -75 -65 C-75 -55, -65 -45, -55 -45 C-45 -45, -35 -55, -35 -65" fill="#fff" />
    <path d="M-40 -70 C-40 -80, -50 -90, -60 -90 C-70 -90, -80 -80, -80 -70 C-80 -60, -70 -50, -60 -50 C-50 -50, -40 -60, -40 -70" fill="#1e8e3e" />
    <path d="M-45 -75 C-45 -85, -55 -95, -65 -95 C-75 -95, -85 -85, -85 -75 C-85 -65, -75 -55, -65 -55 C-55 -55, -45 -65, -45 -75" fill="#fff" />
    <path d="M-50 -80 C-50 -90, -60 -100, -70 -100 C-80 -100, -90 -90, -90 -80 C-90 -70, -80 -60, -70 -60 C-60 -60, -50 -70, -50 -80" fill="#1e8e3e" />
    <path d="M-55 -85 C-55 -95, -65 -105, -75 -105 C-85 -105, -95 -95, -95 -85 C-95 -75, -85 -65, -75 -65 C-65 -65, -55 -75, -55 -85" fill="#fff" />
    <path d="M-60 -90 C-60 -100, -70 -110, -80 -110 C-90 -110, -100 -100, -100 -90 C-100 -80, -90 -70, -80 -70 C-70 -70, -60 -80, -60 -90" fill="#1e8e3e" />
    <path d="M-65 -95 C-65 -105, -75 -115, -85 -115 C-95 -115, -105 -105, -105 -95 C-105 -85, -95 -75, -85 -75 C-75 -75, -65 -85, -65 -95" fill="#fff" />
    <path d="M-70 -100 C-70 -110, -80 -120, -90 -120 C-100 -120, -110 -110, -110 -100 C-110 -90, -100 -80, -90 -80 C-80 -80, -70 -90, -70 -100" fill="#1e8e3e" />
    <path d="M-75 -105 C-75 -115, -85 -125, -95 -125 C-105 -125, -115 -115, -115 -105 C-115 -95, -105 -85, -95 -85 C-85 -85, -75 -95, -75 -105" fill="#fff" />
    <path d="M-80 -110 C-80 -120, -90 -130, -100 -130 C-110 -130, -120 -120, -120 -110 C-120 -100, -110 -90, -100 -90 C-90 -90, -80 -100, -80 -110" fill="#1e8e3e" />
    <path d="M-85 -115 C-85 -125, -95 -135, -105 -135 C-115 -135, -125 -125, -125 -115 C-125 -105, -115 -95, -105 -95 C-95 -95, -85 -105, -85 -115" fill="#fff" />
    <path d="M-90 -120 C-90 -130, -100 -140, -110 -140 C-120 -140, -130 -130, -130 -120 C-130 -110, -120 -100, -110 -100 C-100 -100, -90 -110, -90 -120" fill="#1e8e3e" />
    <path d="M-95 -125 C-95 -135, -105 -145, -115 -145 C-125 -145, -135 -135, -135 -125 C-135 -115, -125 -105, -115 -105 C-105 -105, -95 -115, -95 -125" fill="#fff" />
    <path d="M-100 -130 C-100 -140, -110 -150, -120 -150 C-130 -150, -140 -140, -140 -130 C-140 -120, -130 -110, -120 -110 C-110 -110, -100 -120, -100 -130" fill="#1e8e3e" />
    <path d="M-105 -135 C-105 -145, -115 -155, -125 -155 C-135 -155, -145 -145, -145 -135 C-145 -125, -135 -115, -125 -115 C-115 -115, -105 -125, -105 -135" fill="#fff" />
    <path d="M-110 -140 C-110 -150, -120 -160, -130 -160 C-140 -160, -150 -150, -150 -140 C-150 -130, -140 -120, -130 -120 C-120 -120, -110 -130, -110 -140" fill="#1e8e3e" />
    <path d="M-115 -145 C-115 -155, -125 -165, -135 -165 C-145 -165, -155 -155, -155 -145 C-155 -135, -145 -125, -135 -125 C-125 -125, -115 -135, -115 -145" fill="#fff" />
    <path d="M-120 -150 C-120 -160, -130 -170, -140 -170 C-150 -170, -160 -160, -160 -150 C-160 -140, -150 -130, -140 -130 C-130 -130, -120 -140, -120 -150" fill="#1e8e3e" />
    <path d="M-125 -155 C-125 -165, -135 -175, -145 -175 C-155 -175, -165 -165, -165 -155 C-165 -145, -155 -135, -145 -135 C-135 -135, -125 -145, -125 -155" fill="#fff" />
    <path d="M-130 -160 C-130 -170, -140 -180, -150 -180 C-160 -180, -170 -170, -170 -160 C-170 -150, -160 -140, -150 -140 C-140 -140, -130 -150, -130 -160" fill="#1e8e3e" />
    <path d="M-135 -165 C-135 -175, -145 -185, -155 -185 C-165 -185, -175 -175, -175 -165 C-175 -155, -165 -145, -155 -145 C-145 -145, -135 -155, -135 -165" fill="#fff" />
    <path d="M-140 -170 C-140 -180, -150 -190, -160 -190 C-170 -190, -180 -180, -180 -170 C-180 -160, -170 -150, -160 -150 C-150 -150, -140 -160, -140 -170" fill="#1e8e3e" />
    <path d="M-145 -175 C-145 -185, -155 -195, -165 -195 C-175 -195, -185 -185, -185 -175 C-185 -165, -175 -155, -165 -155 C-155 -155, -145 -165, -145 -175" fill="#fff" />
    <path d="M-150 -180 C-150 -190, -160 -200, -170 -200 C-180 -200, -190 -190, -190 -180 C-190 -170, -180 -160, -170 -160 C-160 -160, -150 -170, -150 -180" fill="#1e8e3e" />
  </g>
  <text x="150" y="60" font-family="Arial" font-size="40" font-weight="bold" fill="#1e8e3e">Turtle Software</text>
</svg>
